<svg width="18" height="17" viewBox="0 0 18 17" fill="none" xmlns="http://www.w3.org/2000/svg">
<rect x="1.93457" y="2.66797" width="14.1311" height="12.6647" rx="1" stroke="#382E01" stroke-width="2"/>
<mask id="path-2-inside-1_1_1081" fill="white">
<path d="M0.93457 1.37695C0.93457 0.824669 1.38229 0.376953 1.93457 0.376953H16.0657C16.618 0.376953 17.0657 0.824668 17.0657 1.37695V3.60318H0.93457V1.37695Z"/>
</mask>
<path d="M0.93457 1.37695C0.93457 0.824669 1.38229 0.376953 1.93457 0.376953H16.0657C16.618 0.376953 17.0657 0.824668 17.0657 1.37695V3.60318H0.93457V1.37695Z" fill="#382E01"/>
<path d="M17.0657 3.60318V4.60318H18.0657V3.60318H17.0657ZM0.93457 3.60318H-0.0654297V4.60318H0.93457V3.60318ZM1.93457 1.37695H16.0657V-0.623047H1.93457V1.37695ZM16.0657 1.37695V3.60318H18.0657V1.37695H16.0657ZM17.0657 2.60318H0.93457V4.60318H17.0657V2.60318ZM1.93457 3.60318V1.37695H-0.0654297V3.60318H1.93457ZM16.0657 1.37695V1.37695H18.0657C18.0657 0.272383 17.1703 -0.623047 16.0657 -0.623047V1.37695ZM1.93457 -0.623047C0.83 -0.623047 -0.0654297 0.272386 -0.0654297 1.37695H1.93457V1.37695V-0.623047Z" fill="#382E01" mask="url(#path-2-inside-1_1_1081)"/>
</svg>
