<svg width="84" height="76" viewBox="0 0 84 76" fill="none" xmlns="http://www.w3.org/2000/svg">
<rect width="83.8621" height="76" rx="10" fill="#F3F45E"/>
<path d="M72.9023 41.572C72.9023 54.7764 59.1625 65.6753 41.9424 65.6753C24.7222 65.6753 10.9824 54.7764 10.9824 41.572C10.9824 28.3676 24.7222 17.4688 41.9424 17.4688C59.1625 17.4688 72.9023 28.3676 72.9023 41.572Z" fill="#ACECF5" stroke="#382E01"/>
<path d="M72.3642 38.8838C72.3642 44.8831 69.0015 50.3593 63.475 54.3547C57.9491 58.3496 50.2901 60.836 41.8076 60.836C33.3251 60.836 25.6661 58.3496 20.1402 54.3547C14.6136 50.3593 11.251 44.8831 11.251 38.8838C11.251 32.8845 14.6136 27.4083 20.1402 23.4129C25.6661 19.418 33.3251 16.9316 41.8076 16.9316C50.2901 16.9316 57.9491 19.418 63.475 23.4129C69.0015 27.4083 72.3642 32.8845 72.3642 38.8838Z" fill="#ACECF5" stroke="#382E01"/>
<path d="M64.5291 29.4727V39.4216C64.5291 44.396 56.1935 53.9415 38.3124 52.3282C24.0076 51.0375 19.5351 42.3793 19.0869 38.2116V28.666C34.8169 52.4626 58.3446 40.0938 64.5291 29.4727Z" fill="#9152C9"/>
<path d="M64.5291 29.4727H65.0291V27.6203L64.097 29.2211L64.5291 29.4727ZM19.0869 28.666L19.504 28.3903L18.5869 27.0029V28.666H19.0869ZM19.0869 38.2116H18.5869V38.2384L18.5898 38.265L19.0869 38.2116ZM38.3124 52.3282L38.2675 52.8262L38.3124 52.3282ZM65.0291 39.4216V29.4727H64.0291V39.4216H65.0291ZM64.097 29.2211C61.0806 34.4013 53.7817 40.0618 45.3049 41.4829C41.0796 42.1912 36.572 41.8444 32.1579 39.8685C27.7438 37.8925 23.393 34.2736 19.504 28.3903L18.6698 28.9417C22.6458 34.9567 27.1348 38.7155 31.7494 40.7812C36.364 42.847 41.0743 43.2061 45.4702 42.4691C54.2359 40.9996 61.7931 35.1651 64.9611 29.7243L64.097 29.2211ZM18.5869 28.666V38.2116H19.5869V28.666H18.5869ZM18.5898 38.265C19.0644 42.6794 23.735 51.515 38.2675 52.8262L38.3574 51.8302C24.2802 50.5601 20.0057 42.0792 19.584 38.1581L18.5898 38.265ZM38.2675 52.8262C47.3047 53.6416 53.9738 51.6398 58.3986 48.7645C62.7923 45.9095 65.0291 42.145 65.0291 39.4216H64.0291C64.0291 41.6725 62.098 45.168 57.8537 47.926C53.6405 50.6638 47.2012 52.6282 38.3574 51.8302L38.2675 52.8262Z" fill="#382E01"/>
<path d="M64.6425 26.1698C64.6425 30.6892 62.1656 34.8402 58.0509 37.8793C53.9364 40.9182 48.2095 42.8207 41.8079 42.8207C35.4037 42.8207 29.6783 40.9585 25.5665 37.9608C21.4551 34.9635 18.9814 30.8547 18.9814 26.3365C18.9814 21.8169 21.4565 17.6623 25.5693 14.6199C29.6817 11.5777 35.4064 9.67188 41.8079 9.67188C48.2118 9.67188 53.9393 11.5374 58.0533 14.5386C62.1669 17.5394 64.6425 21.6517 64.6425 26.1698Z" fill="#9152C9" stroke="#382E01"/>
<path d="M22.9805 33.002C23.4249 33.8352 24.3136 34.6684 24.9802 35.1684" stroke="#FAFAFA" stroke-linecap="round"/>
<path d="M15.3154 46.834C15.6487 47.5006 15.982 48.0005 16.482 48.5005" stroke="#FAFAFA" stroke-linecap="round"/>
<mask id="path-9-inside-1_1_913" fill="white">
<path fill-rule="evenodd" clip-rule="evenodd" d="M62.3193 41.5471L45.9798 30.5265L50.1408 49.791L54.6375 43.3164L62.3193 41.5471Z"/>
</mask>
<path fill-rule="evenodd" clip-rule="evenodd" d="M62.3193 41.5471L45.9798 30.5265L50.1408 49.791L54.6375 43.3164L62.3193 41.5471Z" fill="#382E01"/>
<path d="M45.9798 30.5265L46.539 29.6975L44.4774 28.3069L45.0024 30.7376L45.9798 30.5265ZM62.3193 41.5471L62.5437 42.5216L64.7865 42.0051L62.8784 40.7181L62.3193 41.5471ZM50.1408 49.791L49.1633 50.0021L49.6492 52.2518L50.9621 50.3614L50.1408 49.791ZM54.6375 43.3164L54.4131 42.3419L54.0366 42.4286L53.8162 42.7459L54.6375 43.3164ZM45.4207 31.3556L61.7601 42.3762L62.8784 40.7181L46.539 29.6975L45.4207 31.3556ZM51.1182 49.5799L46.9573 30.3154L45.0024 30.7376L49.1633 50.0021L51.1182 49.5799ZM50.9621 50.3614L55.4589 43.8868L53.8162 42.7459L49.3194 49.2205L50.9621 50.3614ZM54.862 44.2909L62.5437 42.5216L62.0948 40.5727L54.4131 42.3419L54.862 44.2909Z" fill="#FAFAFA" mask="url(#path-9-inside-1_1_913)"/>
<path d="M22.1173 20.5797C22.2335 20.3292 22.1248 20.0319 21.8743 19.9156C21.6238 19.7993 21.3265 19.9081 21.2103 20.1586L22.1173 20.5797ZM21.7256 29.9423C21.8587 30.1843 22.1627 30.2725 22.4047 30.1395C22.6466 30.0064 22.7349 29.7024 22.6018 29.4604L21.7256 29.9423ZM21.2103 20.1586C20.8101 21.0205 20.4698 22.5964 20.4555 24.3646C20.4412 26.1408 20.7549 28.1774 21.7256 29.9423L22.6018 29.4604C21.7394 27.8924 21.4421 26.0406 21.4555 24.3727C21.469 22.6969 21.7953 21.2732 22.1173 20.5797L21.2103 20.1586Z" fill="#FAFAFA"/>
<path d="M13.8019 35.538C13.8963 35.2785 13.7624 34.9916 13.5029 34.8973C13.2433 34.8029 12.9565 34.9368 12.8621 35.1963L13.8019 35.538ZM14.2262 43.7723C14.3585 44.0147 14.6622 44.1041 14.9046 43.9718C15.147 43.8396 15.2363 43.5359 15.1041 43.2934L14.2262 43.7723ZM12.8621 35.1963C12.6643 35.7403 12.6025 36.4375 12.6187 37.1697C12.635 37.9112 12.7327 38.7302 12.882 39.5406C13.1785 41.1504 13.691 42.791 14.2262 43.7723L15.1041 43.2934C14.6395 42.4417 14.1521 40.9159 13.8654 39.3595C13.7231 38.5867 13.6333 37.8226 13.6184 37.1476C13.6033 36.4632 13.6664 35.9106 13.8019 35.538L12.8621 35.1963Z" fill="#FAFAFA"/>
</svg>
